<svg width="312" height="110" viewBox="0 0 312 110" fill="none" xmlns="http://www.w3.org/2000/svg">
<g clip-path="url(#clip0_2719_11427)">
<path d="M206.115 96.5596V72.4278C206.115 69.3529 207.74 67.7231 210.784 67.7231H218.475C227.509 67.7231 233.174 73.4491 233.781 80.7615C233.965 83.2496 233.965 85.7486 233.781 88.2368C233.142 95.5491 227.509 101.275 218.475 101.275H210.784C207.74 101.275 206.115 99.6453 206.115 96.5704V96.5596ZM218.312 95.0276C224.021 95.0276 226.848 91.8332 227.13 87.4545C227.271 85.5422 227.292 83.4561 227.13 81.5438C226.794 77.1433 224.021 73.9707 218.312 73.9707H212.745V95.0276H218.312Z" fill="#147BF5"/>
<path d="M238.635 91.9744C238.494 90.2034 238.472 87.2372 238.613 85.6074C239.155 79.7184 243.422 75.4592 250.03 75.4592C256.638 75.4592 260.667 79.7184 260.667 86.1507V87.4002C260.667 90.236 260.05 90.6706 257.526 90.6706H244.603C244.603 90.9096 244.625 91.1487 244.625 91.3769C244.722 94.1475 246.965 96.0163 250.398 96.0163C252.424 96.0163 253.865 95.5708 254.905 95.1688C255.782 94.8646 256.345 94.5278 257.125 94.5278C258.653 94.5278 259.79 95.5165 259.79 97.2006C259.79 98.8848 258.609 99.7105 257.548 100.178C255.847 100.96 253.139 101.71 250.236 101.71C243.585 101.71 239.122 97.6678 238.635 91.9636V91.9744ZM254.818 86.3245C255.078 82.8911 252.976 80.8158 249.77 80.8158C246.564 80.8158 244.744 82.9889 244.625 86.1615V86.3245H254.818Z" fill="#147BF5"/>
<path d="M274.803 101.721C270.795 101.721 267.849 100.536 266.245 99.3737C264.967 98.5262 264.566 97.5483 264.566 96.5161C264.566 95.234 265.53 93.7672 267.09 93.7672C267.816 93.7672 268.477 94.028 269.398 94.5712C270.697 95.397 272.138 96.0598 274.868 96.0598C277.316 96.0598 278.377 95.0602 278.377 93.7672C278.377 92.7459 277.652 92.0179 275.669 91.5616L272.084 90.7358C268.336 89.8883 265.292 87.5849 265.292 83.4017C265.292 78.382 269.614 75.4266 274.846 75.4266C278.031 75.4266 280.696 76.3936 282.06 77.3389C283.241 78.1647 283.664 78.947 283.664 80.1313C283.664 81.4786 282.602 83.0215 281.021 83.0215C280.1 83.0215 279.439 82.7172 278.713 82.2935C278.15 81.9349 276.568 81.1852 274.792 81.1852C272.452 81.1852 271.391 82.0653 271.391 83.3148C271.391 84.3362 272.116 84.9446 274.218 85.4227L277.403 86.1289C282.31 87.2155 284.595 89.6493 284.595 93.626C284.595 98.7109 280.23 101.721 274.781 101.721H274.803Z" fill="#147BF5"/>
<path d="M312.001 98.5045C312.001 100.352 310.755 101.514 309 101.514C307.939 101.514 306.996 101.134 306.032 100.047L299.197 92.6155C298.233 91.5725 298.038 91.5507 296.771 91.5507H296.208V98.0373C296.208 100.167 294.929 101.449 293.001 101.449C291.073 101.449 289.795 100.167 289.795 98.0373V70.4721C289.795 68.3208 291.073 67.0387 293.001 67.0387C294.929 67.0387 296.208 68.3208 296.208 70.4721V85.401H296.684C297.648 85.401 297.887 85.3249 298.883 84.3145L306.011 77.1217C306.975 76.1329 307.831 75.6766 308.892 75.6766C310.614 75.6766 311.936 76.9261 311.936 78.708C311.936 79.6967 311.438 80.642 310.571 81.5221L303.779 88.2368L310.874 95.7121C311.752 96.6357 312.033 97.6462 312.033 98.5045H312.001Z" fill="#147BF5"/>
<path d="M67.2363 93.4631C67.2363 89.5625 70.3018 85.8466 76.812 85.8466C78.7185 85.8466 80.495 86.1073 82.3798 86.6071V84.7818C82.3798 82.4675 81.1016 81.1854 77.4944 81.1854C76.0754 81.1854 74.6672 81.4896 73.6707 81.8699C72.8257 82.1524 72.0892 82.4349 71.3851 82.4349C69.9011 82.4349 68.742 81.3266 68.7203 79.762C68.7203 78.4582 69.3811 77.3934 71.0601 76.7523C72.7824 76.0678 75.1438 75.4268 77.9494 75.4268C84.7628 75.4268 88.5433 78.4364 88.5433 85.0317V96.8639C88.5433 97.9722 88.24 98.5698 87.4059 99.1131C85.8461 100.156 82.1198 101.71 77.2453 101.71C70.6701 101.71 67.2472 97.9722 67.2472 93.4522L67.2363 93.4631ZM77.6894 96.5814C79.3901 96.5814 81.1341 96.1577 82.3798 95.5166V90.9098C80.7333 90.41 79.2709 90.1709 77.6677 90.1709C74.8189 90.1709 73.324 91.616 73.324 93.4631C73.324 95.4515 75.1222 96.5814 77.6894 96.5814Z" fill="#292D3E"/>
<path d="M96.8183 95.6143L92.8537 79.9031C92.7562 79.4794 92.7129 79.1425 92.7129 78.7948C92.7129 76.8282 94.2727 75.6765 96.0817 75.6765C97.5657 75.6765 98.7464 76.6435 99.1039 78.3711C100.425 84.0971 101.487 89.345 102.505 95.1471C102.549 95.3644 102.646 95.4296 102.765 95.4296C102.863 95.4296 102.949 95.3644 103.003 95.1471C104.087 89.7796 105.267 83.5104 106.253 79.6315C106.838 77.1977 108.214 75.6765 110.9 75.6765C113.587 75.6765 114.984 77.1868 115.547 79.6315C116.825 84.9989 117.768 89.6384 118.894 95.1471C118.938 95.3644 119.057 95.4296 119.176 95.4296C119.273 95.4296 119.338 95.3644 119.414 95.1471C120.4 89.5841 121.635 83.4343 122.74 78.3928C123.097 76.6435 124.278 75.6765 125.805 75.6765C127.647 75.6765 129.152 76.8826 129.152 78.7948C129.152 79.1534 129.077 79.4794 128.99 79.9031L125.025 95.6143C123.942 99.993 122.382 101.503 119.317 101.503C116.251 101.503 114.67 100.015 113.749 95.5926L111.149 83.8363C111.128 83.6951 111.03 83.6516 110.911 83.6516C110.814 83.6516 110.727 83.6951 110.694 83.8363L108.03 95.5926C107.087 99.993 105.506 101.503 102.516 101.503C99.5264 101.503 97.869 99.993 96.8075 95.6143H96.8183Z" fill="#292D3E"/>
<path d="M135.046 106.903C135.046 105.817 135.566 104.991 136.486 104.274C137.927 103.253 139.595 101.677 140.635 99.2869L132.544 80.8376C132.121 79.8489 132.002 79.273 132.002 78.7841C132.002 77.0131 133.399 75.6875 135.306 75.6875C136.833 75.6875 137.873 76.372 138.49 78.0344L143.939 92.3983C144.058 92.7351 144.102 92.7786 144.242 92.7786C144.405 92.7786 144.459 92.7351 144.567 92.3983L149.713 77.9692C150.233 76.4589 151.272 75.6984 152.8 75.6984C154.565 75.6984 155.963 77.0239 155.963 78.7298C155.963 79.2513 155.865 79.8163 155.562 80.5769L147.73 99.4824C145.705 104.383 143.506 106.936 140.96 108.968C140.202 109.609 139.357 110.033 138.274 110.033C136.389 110.033 135.046 108.588 135.046 106.936V106.903Z" fill="#292D3E"/>
<path d="M158.971 91.9746C158.83 90.2035 158.808 87.2373 158.949 85.6075C159.491 79.7185 163.758 75.4594 170.366 75.4594C176.974 75.4594 181.003 79.7185 181.003 86.1508V87.4003C181.003 90.2361 180.386 90.6707 177.862 90.6707H164.939C164.939 90.9098 164.961 91.1488 164.961 91.377C165.058 94.1476 167.301 96.0164 170.734 96.0164C172.76 96.0164 174.201 95.571 175.241 95.169C176.118 94.8647 176.681 94.5279 177.461 94.5279C178.989 94.5279 180.126 95.5166 180.126 97.2008C180.126 98.8849 178.945 99.7106 177.884 100.178C176.183 100.96 173.475 101.71 170.572 101.71C163.921 101.71 159.458 97.668 158.971 91.9637V91.9746ZM175.154 86.3246C175.414 82.8912 173.312 80.8159 170.106 80.8159C166.9 80.8159 165.08 82.989 164.961 86.1616V86.3246H175.154Z" fill="#292D3E"/>
<path d="M186.128 98.0808V84.0755C186.128 78.795 189.356 75.4376 194.425 75.4376C195.931 75.4376 197.329 75.6006 198.477 75.9157C200.297 76.4155 201.586 77.3608 201.586 79.1861C201.586 81.1528 200.286 82.3045 198.964 82.3045C198.347 82.3045 197.903 82.185 197.458 82.0654C196.776 81.9025 196.115 81.7829 195.195 81.7829C193.375 81.7829 192.552 82.663 192.552 84.5319V98.0917C192.552 100.243 191.273 101.525 189.324 101.525C187.374 101.525 186.117 100.243 186.117 98.0917L186.128 98.0808Z" fill="#292D3E"/>
<path d="M75.4793 16.2328L63.8672 43.1352H68.4275L75.4793 16.2328Z" fill="#292D3E"/>
<path d="M75.4785 16.2328L81.2846 43.1352H86.1266L75.4785 16.2328Z" fill="#292D3E"/>
<path d="M0 44.7975C2.8597 51.0124 9.10988 55.3368 16.3783 55.3368C23.6467 55.3368 29.9077 51.0124 32.7566 44.7975H0Z" fill="#292D3E"/>
<path d="M17.2762 16.2327L5.66406 43.1351H10.2244L17.2762 16.2327Z" fill="#292D3E"/>
<path d="M17.2773 16.2327L23.0834 43.1351H27.9254L17.2773 16.2327Z" fill="#292D3E"/>
<path d="M58.2003 44.7975C61.06 51.0124 67.3102 55.3368 74.5786 55.3368C81.847 55.3368 88.108 51.0124 90.9569 44.7975H58.1895H58.2003Z" fill="#292D3E"/>
<path d="M53.5977 23.4906C53.5977 23.4906 67.1488 23.3059 74.5255 10.7347C74.5255 10.7347 76.367 23.9578 58.028 33.0194C58.028 33.0194 58.1255 26.8262 53.5977 23.4906Z" fill="#292D3E"/>
<path d="M54.9436 8.98558C54.727 3.97669 51.7048 0 48.011 0C45.4329 0 43.1907 1.93402 41.9883 4.79158C43.5481 6.5083 49.2459 8.49664 54.9328 8.98558H54.9436Z" fill="#292D3E"/>
<path d="M41.1641 10.724C41.6948 15.2874 44.5545 18.7643 48.0209 18.7643C51.4872 18.7643 54.3469 15.2765 54.8776 10.724H41.1641Z" fill="#292D3E"/>
<path fill-rule="evenodd" clip-rule="evenodd" d="M42.5938 56.5385V96.5705C42.5938 99.6454 44.2186 101.275 47.2408 101.275H61.9617C64.0199 101.275 65.2656 100.069 65.2656 98.2003C65.2656 96.3315 64.009 95.1254 61.9617 95.1254H49.1797V54.929C48.7712 54.7144 48.3861 54.5451 48.0843 54.435L47.3694 54.1743V50.7083C45.6465 52.3723 43.892 54.2995 42.5938 56.5385Z" fill="#292D3E"/>
<path d="M55.7868 32.9109C55.4835 31.3463 55.2344 29.6079 54.5411 28.1737C53.5879 26.1962 51.7139 24.9901 49.6883 24.3274C46.8827 23.4038 43.8389 23.3278 40.9142 23.3386C38.7369 23.3386 36.2888 23.6972 34.1441 23.1648C26.9515 21.3611 18.1016 14.1466 18.1016 14.1466C22.7161 25.0553 33.7324 27.7391 38.8452 29.1298C43.958 30.5206 49.7749 34.1278 41.6074 47.1662C33.4508 60.2045 40.6434 69.7768 40.6434 69.7768C35.6606 56.8797 47.6951 49.5239 51.5731 45.3625C53.5879 43.2003 55.4943 41.4402 56.0143 38.3544C56.3176 36.5508 56.1226 34.7146 55.776 32.9218L55.7868 32.9109Z" fill="#292D3E"/>
<path d="M49.5762 80.5116C49.5762 80.5116 53.4433 66.2238 50.2694 63.1054L49.9878 58.1074C49.9878 58.1074 60.43 64.6266 49.5762 80.5116Z" fill="#292D3E"/>
<path d="M48.2578 50.3931V53.9025C48.2578 53.9025 52.5582 55.478 52.7423 58.0639C52.9265 60.6499 53.3923 58.0639 53.3923 58.0639C53.3923 58.0639 55.1146 51.8816 48.2578 50.3931Z" fill="#292D3E"/>
</g>
<defs>
<clipPath id="clip0_2719_11427">
<rect width="312" height="110" fill="white"/>
</clipPath>
</defs>
</svg>
